<mxfile host="app.diagrams.net" modified="2022-03-02T03:12:22.592Z" agent="5.0 (Windows NT 10.0; Win64; x64) AppleWebKit/537.36 (KHTML, like Gecko) Chrome/98.0.4758.102 Safari/537.36" etag="cavHu8L2XSkfY8XhC6CT" version="16.6.4" type="github">
  <diagram id="cF6QegG48uP6xj5ek5DZ" name="第 1 页">
    <mxGraphModel dx="782" dy="444" grid="1" gridSize="10" guides="1" tooltips="1" connect="1" arrows="1" fold="1" page="1" pageScale="1" pageWidth="827" pageHeight="1169" math="0" shadow="0">
      <root>
        <mxCell id="0" />
        <mxCell id="1" parent="0" />
        <mxCell id="nQ3ihQEgkKkBDkdN5sY6-11" value="利用主体信息" style="edgeStyle=orthogonalEdgeStyle;rounded=0;orthogonalLoop=1;jettySize=auto;html=1;entryX=0.5;entryY=0;entryDx=0;entryDy=0;fontSize=11;" edge="1" parent="1" source="nQ3ihQEgkKkBDkdN5sY6-1" target="nQ3ihQEgkKkBDkdN5sY6-2">
          <mxGeometry relative="1" as="geometry" />
        </mxCell>
        <mxCell id="nQ3ihQEgkKkBDkdN5sY6-1" value="从业主体管理系统" style="rounded=0;whiteSpace=wrap;html=1;fillColor=#dae8fc;strokeColor=#6c8ebf;" vertex="1" parent="1">
          <mxGeometry x="80" y="80" width="120" height="60" as="geometry" />
        </mxCell>
        <mxCell id="nQ3ihQEgkKkBDkdN5sY6-2" value="房地产项目管理系统" style="rounded=0;whiteSpace=wrap;html=1;fillColor=#d5e8d4;strokeColor=#82b366;" vertex="1" parent="1">
          <mxGeometry x="80" y="230" width="120" height="60" as="geometry" />
        </mxCell>
        <mxCell id="nQ3ihQEgkKkBDkdN5sY6-3" value="商品房预现售管理系统" style="rounded=0;whiteSpace=wrap;html=1;fillColor=#ffe6cc;strokeColor=#d79b00;" vertex="1" parent="1">
          <mxGeometry x="80" y="420" width="120" height="60" as="geometry" />
        </mxCell>
        <mxCell id="nQ3ihQEgkKkBDkdN5sY6-4" value="权籍管理系统" style="rounded=0;whiteSpace=wrap;html=1;fillColor=#f8cecc;strokeColor=#b85450;" vertex="1" parent="1">
          <mxGeometry x="360" y="230" width="120" height="60" as="geometry" />
        </mxCell>
        <mxCell id="nQ3ihQEgkKkBDkdN5sY6-6" value="" style="endArrow=classic;html=1;rounded=0;exitX=1;exitY=0.25;exitDx=0;exitDy=0;entryX=0;entryY=0.25;entryDx=0;entryDy=0;" edge="1" parent="1" source="nQ3ihQEgkKkBDkdN5sY6-2" target="nQ3ihQEgkKkBDkdN5sY6-4">
          <mxGeometry width="50" height="50" relative="1" as="geometry">
            <mxPoint x="380" y="320" as="sourcePoint" />
            <mxPoint x="430" y="270" as="targetPoint" />
          </mxGeometry>
        </mxCell>
        <mxCell id="nQ3ihQEgkKkBDkdN5sY6-7" value="提供项目信息采集功能" style="edgeLabel;html=1;align=center;verticalAlign=middle;resizable=0;points=[];fontSize=3;" vertex="1" connectable="0" parent="nQ3ihQEgkKkBDkdN5sY6-6">
          <mxGeometry x="0.1208" y="-1" relative="1" as="geometry">
            <mxPoint as="offset" />
          </mxGeometry>
        </mxCell>
        <mxCell id="nQ3ihQEgkKkBDkdN5sY6-8" value="利用楼撞、楼盘表信息" style="endArrow=classic;html=1;rounded=0;fontSize=11;exitX=0;exitY=0.75;exitDx=0;exitDy=0;entryX=1;entryY=0.75;entryDx=0;entryDy=0;horizontal=1;" edge="1" parent="1" source="nQ3ihQEgkKkBDkdN5sY6-4" target="nQ3ihQEgkKkBDkdN5sY6-2">
          <mxGeometry width="50" height="50" relative="1" as="geometry">
            <mxPoint x="380" y="320" as="sourcePoint" />
            <mxPoint x="430" y="270" as="targetPoint" />
          </mxGeometry>
        </mxCell>
        <mxCell id="nQ3ihQEgkKkBDkdN5sY6-9" value="利用销售方案信息" style="endArrow=classic;html=1;rounded=0;fontSize=11;exitX=0.639;exitY=-0.061;exitDx=0;exitDy=0;exitPerimeter=0;entryX=0.65;entryY=1.028;entryDx=0;entryDy=0;entryPerimeter=0;horizontal=0;" edge="1" parent="1">
          <mxGeometry width="50" height="50" relative="1" as="geometry">
            <mxPoint x="176.68000000000006" y="416.34000000000003" as="sourcePoint" />
            <mxPoint x="178" y="291.67999999999995" as="targetPoint" />
          </mxGeometry>
        </mxCell>
        <mxCell id="nQ3ihQEgkKkBDkdN5sY6-10" value="提供销售方案采集功能" style="endArrow=classic;html=1;rounded=0;fontSize=11;exitX=0.139;exitY=1.05;exitDx=0;exitDy=0;exitPerimeter=0;entryX=0.128;entryY=-0.061;entryDx=0;entryDy=0;entryPerimeter=0;" edge="1" parent="1" source="nQ3ihQEgkKkBDkdN5sY6-2" target="nQ3ihQEgkKkBDkdN5sY6-3">
          <mxGeometry width="50" height="50" relative="1" as="geometry">
            <mxPoint x="90" y="340" as="sourcePoint" />
            <mxPoint x="140" y="290" as="targetPoint" />
          </mxGeometry>
        </mxCell>
      </root>
    </mxGraphModel>
  </diagram>
</mxfile>
